REM DIRINDEX 1\3,1\2\4,1\2\5,1\2\6
REM DIRNAME cjc137,folder01,folder02,folder03,folder04,folder05
TITLE ""
FILE "109.mp3" MP3
  TRACK 01 AUDIO
    TITLE "0:"
    INDEX 01 00:00:00
  TRACK 02 AUDIO
    TITLE "4:cjc137_4497"
    INDEX 01 00:00:03
  TRACK 03 AUDIO
    TITLE "0:"
    INDEX 01 00:01:32
  TRACK 04 AUDIO
    TITLE "6:cjc137_4498"
    INDEX 01 00:01:38
  TRACK 05 AUDIO
    TITLE "0:"
    INDEX 01 00:02:45
  TRACK 06 AUDIO
    TITLE "5:cjc137_4499"
    INDEX 01 00:02:53
  TRACK 07 AUDIO
    TITLE "0:"
    INDEX 01 00:04:05
  TRACK 08 AUDIO
    TITLE "4:cjc137_4500"
    INDEX 01 00:05:16
  TRACK 09 AUDIO
    TITLE "0:"
    INDEX 01 00:06:14
  TRACK 10 AUDIO
    TITLE "6:cjc137_4501"
    INDEX 01 00:06:24
  TRACK 11 AUDIO
    TITLE "0:"
    INDEX 01 00:07:23
  TRACK 12 AUDIO
    TITLE "5:cjc137_4502"
    INDEX 01 00:07:33
  TRACK 13 AUDIO
    TITLE "0:"
    INDEX 01 00:08:32
  TRACK 14 AUDIO
    TITLE "4:cjc137_4503"
    INDEX 01 00:09:44
  TRACK 15 AUDIO
    TITLE "0:"
    INDEX 01 00:10:53
  TRACK 16 AUDIO
    TITLE "6:cjc137_4504"
    INDEX 01 00:10:61
  TRACK 17 AUDIO
    TITLE "0:"
    INDEX 01 00:12:03
  TRACK 18 AUDIO
    TITLE "5:cjc137_4505"
    INDEX 01 00:12:07
  TRACK 19 AUDIO
    TITLE "0:"
    INDEX 01 00:13:18
  TRACK 20 AUDIO
    TITLE "4:cjc137_4506"
    INDEX 01 00:14:25
  TRACK 21 AUDIO
    TITLE "0:"
    INDEX 01 00:15:68
  TRACK 22 AUDIO
    TITLE "6:cjc137_4507"
    INDEX 01 00:15:70
  TRACK 23 AUDIO
    TITLE "0:"
    INDEX 01 00:17:41
  TRACK 24 AUDIO
    TITLE "5:cjc137_4508"
    INDEX 01 00:17:47
  TRACK 25 AUDIO
    TITLE "0:"
    INDEX 01 00:19:15
  TRACK 26 AUDIO
    TITLE "4:cjc137_4509"
    INDEX 01 00:20:22
  TRACK 27 AUDIO
    TITLE "0:"
    INDEX 01 00:21:29
  TRACK 28 AUDIO
    TITLE "6:cjc137_4510"
    INDEX 01 00:21:43
  TRACK 29 AUDIO
    TITLE "0:"
    INDEX 01 00:23:06
  TRACK 30 AUDIO
    TITLE "5:cjc137_4511"
    INDEX 01 00:23:14
  TRACK 31 AUDIO
    TITLE "0:"
    INDEX 01 00:24:24
  TRACK 32 AUDIO
    TITLE "4:cjc137_4512"
    INDEX 01 00:25:37
  TRACK 33 AUDIO
    TITLE "0:"
    INDEX 01 00:26:38
  TRACK 34 AUDIO
    TITLE "6:cjc137_4513"
    INDEX 01 00:26:48
  TRACK 35 AUDIO
    TITLE "0:"
    INDEX 01 00:27:26
  TRACK 36 AUDIO
    TITLE "5:cjc137_4514"
    INDEX 01 00:27:36
  TRACK 37 AUDIO
    TITLE "0:"
    INDEX 01 00:28:35
  TRACK 38 AUDIO
    TITLE "4:cjc137_4515"
    INDEX 01 00:29:46
  TRACK 39 AUDIO
    TITLE "0:"
    INDEX 01 00:30:50
  TRACK 40 AUDIO
    TITLE "6:cjc137_4516"
    INDEX 01 00:30:57
  TRACK 41 AUDIO
    TITLE "0:"
    INDEX 01 00:31:45
  TRACK 42 AUDIO
    TITLE "5:cjc137_4517"
    INDEX 01 00:31:51
  TRACK 43 AUDIO
    TITLE "0:"
    INDEX 01 00:32:54
  TRACK 44 AUDIO
    TITLE "4:cjc137_4518"
    INDEX 01 00:33:62
  TRACK 45 AUDIO
    TITLE "0:"
    INDEX 01 00:35:02
  TRACK 46 AUDIO
    TITLE "6:cjc137_4519"
    INDEX 01 00:35:06
  TRACK 47 AUDIO
    TITLE "0:"
    INDEX 01 00:36:17
  TRACK 48 AUDIO
    TITLE "5:cjc137_4520"
    INDEX 01 00:36:21
  TRACK 49 AUDIO
    TITLE "0:"
    INDEX 01 00:37:36
  TRACK 50 AUDIO
    TITLE "4:cjc137_4521"
    INDEX 01 00:38:41
  TRACK 51 AUDIO
    TITLE "0:"
    INDEX 01 00:39:72
  TRACK 52 AUDIO
    TITLE "6:cjc137_4522"
    INDEX 01 00:40:01
  TRACK 53 AUDIO
    TITLE "0:"
    INDEX 01 00:41:08
  TRACK 54 AUDIO
    TITLE "5:cjc137_4523"
    INDEX 01 00:41:12
  TRACK 55 AUDIO
    TITLE "0:"
    INDEX 01 00:42:41
  TRACK 56 AUDIO
    TITLE "4:cjc137_4524"
    INDEX 01 00:43:48
  TRACK 57 AUDIO
    TITLE "0:"
    INDEX 01 00:44:56
  TRACK 58 AUDIO
    TITLE "6:cjc137_4525"
    INDEX 01 00:44:60
  TRACK 59 AUDIO
    TITLE "0:"
    INDEX 01 00:46:15
  TRACK 60 AUDIO
    TITLE "5:cjc137_4526"
    INDEX 01 00:46:19
  TRACK 61 AUDIO
    TITLE "0:"
    INDEX 01 00:47:23
  TRACK 62 AUDIO
    TITLE "4:cjc137_4527"
    INDEX 01 00:48:32
  TRACK 63 AUDIO
    TITLE "0:"
    INDEX 01 00:49:53
  TRACK 64 AUDIO
    TITLE "6:cjc137_4528"
    INDEX 01 00:49:63
  TRACK 65 AUDIO
    TITLE "0:"
    INDEX 01 00:51:42
  TRACK 66 AUDIO
    TITLE "5:cjc137_4529"
    INDEX 01 00:51:46
  TRACK 67 AUDIO
    TITLE "0:"
    INDEX 01 00:52:69
  TRACK 68 AUDIO
    TITLE "4:cjc137_4530"
    INDEX 01 00:54:01
  TRACK 69 AUDIO
    TITLE "0:"
    INDEX 01 00:55:12
  TRACK 70 AUDIO
    TITLE "6:cjc137_4531"
    INDEX 01 00:55:18
  TRACK 71 AUDIO
    TITLE "0:"
    INDEX 01 00:56:59
  TRACK 72 AUDIO
    TITLE "5:cjc137_4532"
    INDEX 01 00:56:67
  TRACK 73 AUDIO
    TITLE "0:"
    INDEX 01 00:58:03
  TRACK 74 AUDIO
    TITLE "4:cjc137_4533"
    INDEX 01 00:59:10
  TRACK 75 AUDIO
    TITLE "0:"
    INDEX 01 01:00:27
  TRACK 76 AUDIO
    TITLE "6:cjc137_4534"
    INDEX 01 01:00:31
  TRACK 77 AUDIO
    TITLE "0:"
    INDEX 01 01:01:62
  TRACK 78 AUDIO
    TITLE "5:cjc137_4535"
    INDEX 01 01:01:68
  TRACK 79 AUDIO
    TITLE "0:"
    INDEX 01 01:03:08
  TRACK 80 AUDIO
    TITLE "4:cjc137_4536"
    INDEX 01 01:04:15
  TRACK 81 AUDIO
    TITLE "0:"
    INDEX 01 01:05:38
  TRACK 82 AUDIO
    TITLE "6:cjc137_4537"
    INDEX 01 01:05:48
  TRACK 83 AUDIO
    TITLE "0:"
    INDEX 01 01:06:65
  TRACK 84 AUDIO
    TITLE "5:cjc137_4538"
    INDEX 01 01:06:71
  TRACK 85 AUDIO
    TITLE "0:"
    INDEX 01 01:08:21
